<?xml version="1.0" standalone="no"?>
<!DOCTYPE svg PUBLIC "-//W3C//DTD SVG 20010904//EN"
 "http://www.w3.org/TR/2001/REC-SVG-20010904/DTD/svg10.dtd">
<svg version="1.0" xmlns="http://www.w3.org/2000/svg"
 width="1024.000000pt" height="1024.000000pt" viewBox="0 0 1024.000000 1024.000000"
 preserveAspectRatio="xMidYMid meet">

<g transform="translate(0.000000,1024.000000) scale(0.100000,-0.100000)"
fill="#000000" stroke="none">
<path d="M8450 8283 c-8 -3 -92 -34 -186 -69 -94 -35 -305 -111 -470 -169
-164 -58 -310 -114 -323 -123 -90 -66 -91 -180 -1 -240 55 -38 118 -27 369 62
118 42 217 74 219 71 3 -2 -40 -57 -94 -121 -102 -120 -479 -585 -630 -778
l-86 -108 22 -52 c12 -28 24 -84 27 -123 l6 -73 51 0 c62 0 63 1 238 215 63
77 221 271 352 430 304 372 367 447 371 443 2 -2 0 -122 -4 -268 -5 -151 -4
-278 1 -297 12 -43 59 -80 112 -88 65 -10 112 9 144 57 30 46 26 -11 52 764
13 371 13 371 -42 420 -39 36 -97 57 -128 47z"/>
<path d="M6759 6947 c-144 -41 -255 -206 -231 -342 l9 -55 -62 -77 c-86 -109
-352 -447 -503 -640 -70 -89 -131 -162 -137 -162 -5 -1 -54 18 -107 41 l-98
41 0 126 c0 111 -3 132 -24 176 -41 89 -114 135 -216 135 -128 0 -219 -79
-237 -205 -3 -25 -9 -45 -13 -45 -4 0 -29 9 -56 19 -27 11 -200 79 -384 152
-184 72 -411 162 -503 200 l-168 67 -31 -33 c-17 -19 -80 -99 -142 -178 -61
-79 -142 -183 -179 -231 l-69 -86 64 -63 c36 -34 80 -85 99 -114 l35 -51 154
194 c85 107 156 194 158 194 2 0 12 -5 23 -11 12 -6 123 -50 247 -99 125 -48
425 -165 667 -260 785 -306 848 -330 861 -330 12 0 102 111 406 495 391 494
420 530 436 527 10 -2 51 -6 92 -9 65 -4 82 -2 131 20 102 45 165 119 189 225
44 190 -102 378 -300 388 -36 2 -86 -2 -111 -9z"/>
<path d="M4103 6864 c-18 -9 -46 -37 -63 -62 -62 -94 -30 -218 69 -261 61 -26
103 -26 157 -2 99 45 130 171 67 267 -42 65 -157 94 -230 58z"/>
<path d="M5280 6824 c-50 -22 -99 -71 -126 -129 -67 -142 12 -317 164 -361
204 -60 391 172 293 364 -26 51 -99 115 -149 130 -54 16 -140 14 -182 -4z"/>
<path d="M7425 6234 c-68 -35 -105 -96 -105 -173 0 -118 73 -191 190 -191 129
0 228 128 190 245 -16 47 -66 104 -107 121 -43 19 -131 17 -168 -2z"/>
<path d="M2655 6189 c-4 -6 -5 -12 -2 -15 2 -3 7 2 10 11 7 17 1 20 -8 4z"/>
<path d="M6888 6065 c-15 -8 -88 -89 -162 -181 l-136 -165 0 -712 0 -712 97 0
c86 0 105 -3 153 -27 70 -34 133 -95 167 -161 24 -46 27 -63 28 -147 0 -52 -4
-105 -8 -118 -8 -22 -7 -23 30 -20 l38 3 -3 1075 c-4 1057 -4 1076 -24 1108
-35 57 -127 86 -180 57z"/>
<path d="M2566 5963 c-6 -14 -5 -15 5 -6 7 7 10 15 7 18 -3 3 -9 -2 -12 -12z"/>
<path d="M2546 5905 c-9 -26 -7 -32 5 -12 6 10 9 21 6 23 -2 3 -7 -2 -11 -11z"/>
<path d="M2206 5773 c-10 -40 -15 -77 -10 -84 4 -7 3 -10 -3 -6 -10 6 -38
-111 -68 -283 -36 -203 -42 -606 -14 -860 33 -299 171 -784 218 -764 9 3 28
11 44 16 15 5 27 16 27 24 0 32 53 141 90 185 l40 47 -20 58 c-76 221 -112
464 -113 779 -2 254 11 387 64 646 27 137 30 187 8 173 -5 -3 -9 -16 -9 -30 0
-13 -4 -24 -10 -24 -5 0 -10 6 -10 14 0 11 -23 15 -109 18 -60 1 -113 6 -117
10 -4 4 -1 14 5 22 9 10 9 20 3 33 -7 12 -7 25 0 36 5 10 8 28 6 40 -2 13 -11
-7 -22 -50z m-8 -158 c-3 -3 -9 2 -12 12 -6 14 -5 15 5 6 7 -7 10 -15 7 -18z"/>
<path d="M3312 5788 c-185 -28 -320 -225 -268 -392 l15 -49 -123 -156 c-67
-86 -180 -229 -250 -318 l-127 -163 25 -102 c49 -200 74 -256 97 -217 4 8 45
62 91 120 259 329 364 463 421 539 l63 84 100 1 c83 0 107 4 146 23 63 31 132
102 165 171 39 78 40 192 3 266 -67 136 -212 215 -358 193z"/>
<path d="M2502 5760 c-7 -11 -12 -30 -12 -42 1 -21 1 -22 11 -5 6 10 8 21 5
24 -3 4 -1 12 6 20 6 7 9 15 7 18 -3 2 -10 -5 -17 -15z"/>
<path d="M7445 5669 c-45 -13 -97 -61 -125 -115 l-25 -49 0 -902 c0 -497 2
-903 4 -903 2 0 18 10 35 23 17 13 46 29 64 36 26 11 32 19 32 43 0 39 35 141
65 188 37 59 103 118 169 150 33 17 65 30 73 30 11 0 13 113 13 648 0 714 0
717 -61 786 -58 66 -154 92 -244 65z"/>
<path d="M4094 5618 c-27 -29 -120 -142 -207 -250 -86 -108 -162 -200 -167
-203 -6 -4 -10 -206 -10 -558 l0 -552 45 0 c41 1 48 4 66 35 12 19 29 44 40
55 18 20 18 22 -8 74 -38 77 -44 202 -13 283 26 71 92 145 161 183 43 23 69
30 134 33 79 4 94 1 198 -43 16 -7 17 18 17 430 0 491 1 482 -73 536 -31 22
-51 29 -87 29 -44 0 -50 -4 -96 -52z"/>
<path d="M8181 5654 c0 -11 3 -14 6 -6 3 7 2 16 -1 19 -3 4 -6 -2 -5 -13z"/>
<path d="M8481 5634 c0 -11 3 -14 6 -6 3 7 2 16 -1 19 -3 4 -6 -2 -5 -13z"/>
<path d="M8492 5580 c0 -14 2 -19 5 -12 2 6 2 18 0 25 -3 6 -5 1 -5 -13z"/>
<path d="M8202 5570 c0 -14 2 -19 5 -12 2 6 2 18 0 25 -3 6 -5 1 -5 -13z"/>
<path d="M8489 5543 c0 -5 -2 -21 -4 -38 -1 -16 -1 -24 2 -17 2 6 9 12 14 12
7 0 7 -16 0 -75 -1 -5 -6 -3 -11 5 -6 10 -10 11 -10 3 0 -9 -23 -13 -80 -13
l-80 0 0 -51 c0 -50 -1 -51 -26 -46 -25 4 -26 3 -21 -29 3 -19 2 -34 -4 -34
-5 0 -9 12 -10 28 0 15 -5 36 -10 47 -7 16 -8 14 -4 -10 30 -183 35 -568 10
-762 -9 -70 -38 -212 -64 -314 l-47 -186 38 -36 c46 -44 85 -120 100 -192 10
-51 13 -55 47 -65 19 -5 38 -6 42 -2 10 12 86 288 113 409 32 143 53 263 66
383 14 121 14 514 0 662 -14 158 -41 328 -51 328 -5 0 -9 -3 -10 -7z"/>
<path d="M4613 5479 c-17 -5 -41 -21 -52 -35 -21 -26 -21 -35 -21 -695 l0
-669 55 6 c70 9 169 -17 225 -57 45 -33 58 -36 66 -14 3 8 33 32 65 54 l59 40
1 623 0 623 -63 29 c-79 36 -233 91 -273 98 -16 3 -44 1 -62 -3z"/>
<path d="M8220 5468 c0 -19 2 -20 10 -8 13 19 13 30 0 30 -5 0 -10 -10 -10
-22z"/>
<path d="M6320 5373 c-42 -48 -95 -111 -118 -139 l-42 -50 0 -700 0 -700 64 4
c43 3 81 -1 112 -12 61 -20 73 -10 51 41 -39 86 -38 185 0 283 17 42 18 90 13
703 l-5 658 -75 -88z"/>
<path d="M8232 5425 c0 -11 4 -31 8 -45 6 -20 8 -21 8 -5 0 11 -4 31 -8 45 -6
20 -8 21 -8 5z"/>
<path d="M5160 4864 l0 -444 53 40 c155 119 379 104 525 -34 61 -58 90 -111
110 -206 18 -82 18 -82 57 -96 22 -8 43 -14 48 -14 4 0 6 203 5 452 l-3 451
-30 10 c-79 25 -544 195 -647 237 l-118 47 0 -443z"/>
<path d="M3372 4833 c-11 -10 -110 -130 -220 -268 -111 -137 -226 -280 -256
-316 l-55 -66 47 -6 c104 -12 231 -79 285 -151 58 -75 91 -187 80 -263 -4 -27
-2 -33 13 -33 11 0 43 -14 73 -30 30 -17 55 -30 56 -30 2 0 3 29 3 65 1 82 37
166 98 226 l44 43 0 381 c0 362 -1 382 -20 413 -32 52 -108 69 -148 35z"/>
<path d="M4124 4519 c-43 -12 -92 -65 -100 -107 -20 -106 89 -206 188 -173
125 43 145 185 38 262 -32 23 -86 31 -126 18z"/>
<path d="M5661 4124 c0 -11 3 -14 6 -6 3 7 2 16 -1 19 -3 4 -6 -2 -5 -13z"/>
<path d="M5242 4110 c-2 -33 30 -101 59 -129 67 -63 180 -81 249 -40 58 35 81
60 74 83 -4 16 -3 18 5 6 8 -12 12 -9 21 14 6 16 9 34 6 40 -2 6 -5 4 -5 -5
-1 -14 -11 -16 -63 -12 -113 6 -148 13 -148 29 0 10 -12 14 -40 14 -29 0 -40
-4 -40 -15 0 -11 -11 -15 -40 -15 -23 0 -40 -5 -40 -11 0 -22 -29 12 -33 39
-4 27 -4 27 -5 2z m354 -118 c-15 -15 -15 -15 -4 10 7 15 15 23 17 17 2 -6 -4
-18 -13 -27z"/>
<path d="M6601 4071 c-93 -93 -46 -234 81 -248 88 -10 161 54 161 141 0 89
-59 146 -150 146 -48 0 -57 -4 -92 -39z"/>
<path d="M4080 4058 c-24 -13 -53 -36 -64 -51 -21 -28 -21 -40 -24 -743 l-3
-714 -64 0 -65 0 0 400 0 400 -33 37 c-30 32 -41 37 -92 41 -44 4 -67 0 -91
-13 -63 -34 -64 -41 -64 -474 l0 -391 -63 0 -64 0 -6 107 c-4 58 -7 217 -7
352 0 237 -1 248 -24 296 -35 77 -127 158 -158 139 -6 -4 -8 -3 -4 4 6 10 -23
22 -87 36 -23 5 -36 1 -62 -23 -18 -16 -31 -33 -27 -37 4 -4 2 -4 -4 -1 -7 4
-37 -5 -69 -19 -128 -59 -280 -35 -398 62 l-27 23 -53 -18 c-109 -38 -159 -81
-201 -170 -20 -44 -21 -65 -24 -398 l-3 -353 -95 0 c-108 0 -145 -13 -169 -60
-32 -62 -10 -136 49 -164 30 -14 97 -16 596 -16 l563 0 188 -111 c104 -60 235
-134 292 -162 385 -197 801 -324 1217 -372 173 -19 539 -20 722 0 514 54 1071
254 1533 550 l140 90 647 5 647 5 30 29 c40 38 48 83 25 131 -28 60 -63 75
-176 75 l-97 0 -3 348 c-3 340 -3 348 -27 399 -30 68 -102 134 -174 162 -32
11 -64 21 -72 21 -9 0 -41 -17 -73 -38 -85 -58 -116 -67 -217 -67 -101 1 -150
17 -236 81 l-49 35 -55 -16 c-36 -10 -53 -20 -49 -27 4 -7 3 -8 -4 -4 -31 19
-120 -64 -155 -143 -19 -44 -20 -64 -18 -398 l2 -353 -60 0 -61 0 0 253 c0
138 -5 268 -10 288 -14 52 -41 72 -104 77 -48 4 -56 1 -87 -26 l-34 -30 -3
-281 -3 -281 -69 0 -70 0 0 526 0 526 -32 30 c-29 27 -37 30 -86 26 -43 -4
-59 -11 -85 -37 l-32 -31 -5 -168 c-3 -92 -5 -365 -5 -607 0 -527 -6 -498 100
-503 l70 -3 -40 -25 c-266 -166 -699 -297 -1105 -333 -422 -39 -887 27 -1305
184 -38 14 -135 58 -215 98 l-145 72 190 6 c105 4 205 7 224 8 l34 1 -7 825
c-4 454 -9 832 -13 840 -3 9 -12 14 -21 13 -8 -2 -16 5 -18 15 -2 15 0 16 14
5 12 -9 11 -6 -2 10 -11 12 -26 20 -33 17 -8 -2 -12 -1 -9 4 8 12 -49 31 -93
31 -20 0 -57 -10 -81 -22z m89 8 c-10 -10 -79 -24 -79 -16 0 5 8 11 18 13 22
6 67 8 61 3z m38 -12 c-3 -3 -12 -4 -19 -1 -8 3 -5 6 6 6 11 1 17 -2 13 -5z
m-1619 -1296 l2 -208 -53 0 -54 0 -7 200 c-4 111 -4 205 0 211 3 5 29 9 57 7
l52 -3 3 -207z m690 0 l2 -208 -55 0 -55 0 0 211 0 210 53 -3 52 -3 3 -207z
m4272 40 c0 -95 3 -190 6 -210 l7 -38 -62 0 -61 0 0 210 0 210 55 0 55 0 0
-172z m690 -44 l0 -216 -22 6 c-13 3 -38 6 -55 6 l-33 0 0 203 c0 112 3 207 7
210 3 4 28 7 55 7 l48 0 0 -216z"/>
<path d="M2683 3938 c-110 -113 -94 -297 32 -387 42 -30 58 -36 115 -39 85 -5
156 23 206 82 42 49 68 132 60 189 l-6 42 -58 -1 c-100 -2 -316 16 -336 27
-13 7 -16 7 -11 0 4 -7 -4 -11 -20 -11 -21 0 -26 4 -21 16 3 9 6 20 6 25 0 5
16 27 36 49 44 48 41 53 -3 8z"/>
<path d="M4547 3879 c-9 -6 -15 -15 -11 -20 3 -5 0 -8 -8 -7 -7 2 -23 -18 -36
-43 -19 -39 -21 -52 -13 -89 28 -126 187 -156 258 -49 21 32 25 47 21 88 -5
55 -42 115 -65 107 -8 -3 -12 -2 -9 3 13 20 -105 29 -137 10z"/>
<path d="M5120 3875 c-19 -6 -35 -17 -35 -23 0 -5 -4 -14 -9 -19 -5 -5 -6 -3
-2 5 19 32 -49 -9 -86 -53 -44 -51 -46 -81 -50 -672 l-3 -563 -67 0 -67 0 -3
393 c-3 350 -5 395 -20 424 -26 47 -73 76 -133 81 -67 5 -118 -11 -150 -49
l-25 -31 0 -489 c0 -535 0 -534 57 -558 21 -8 263 -11 931 -9 l904 3 20 25
c20 25 21 32 14 380 -6 325 -8 357 -26 385 -26 41 -63 60 -120 60 -58 0 -91
-17 -116 -58 -17 -29 -19 -57 -22 -294 l-3 -263 -70 0 -69 0 0 578 0 578 -25
51 c-19 37 -30 50 -43 47 -9 -3 -30 7 -47 21 -21 18 -24 23 -10 18 11 -3 29
-13 40 -22 19 -15 19 -15 6 2 -13 16 -62 47 -75 47 -3 0 -2 -8 1 -17 5 -13 2
-15 -11 -10 -10 4 -22 7 -27 7 -16 0 -9 18 9 23 10 2 1 7 -22 12 -22 4 -45 4
-51 -1 -81 -61 -96 -74 -85 -74 8 0 25 10 39 23 14 12 20 15 14 7 -6 -8 -12
-19 -12 -25 -1 -5 -16 -10 -34 -10 -17 -1 -49 -7 -69 -14 -21 -7 -58 -13 -83
-14 -25 -1 -45 -5 -45 -9 0 -5 -8 -8 -17 -8 -15 0 -16 2 -3 10 12 8 10 10 -10
10 -48 0 -101 21 -165 65 -36 25 -67 45 -70 45 -13 0 -3 -19 13 -23 9 -3 1 -5
-18 -6 -25 0 -31 2 -20 9 24 15 7 18 -30 5z m640 -15 c0 -14 -7 -20 -21 -20
-11 0 -17 5 -14 10 3 6 1 10 -5 10 -6 0 -8 5 -5 10 12 19 45 11 45 -10z m-530
-15 c7 -8 10 -21 7 -28 -9 -24 -97 0 -97 27 0 2 15 7 33 9 17 2 35 5 38 5 4 1
12 -5 19 -13z m124 -69 c9 -1 19 -6 23 -10 4 -4 -4 -5 -17 -3 -39 7 -89 30
-94 44 -3 7 10 4 34 -8 22 -11 46 -22 54 -23z m440 -475 c14 -16 16 -62 14
-387 l-3 -369 -29 -3 c-16 -2 -44 -1 -63 3 l-33 6 0 367 c0 202 4 372 8 379
10 16 52 31 73 26 10 -3 25 -13 33 -22z m-556 7 c9 -9 12 -108 12 -385 l0
-373 -65 0 -65 0 0 366 c0 233 4 372 10 385 8 14 21 19 53 19 24 0 48 -5 55
-12z"/>
<path d="M3676 3860 c-78 -24 -118 -119 -80 -192 46 -89 148 -103 219 -32 40
39 52 88 35 138 -21 65 -105 106 -174 86z"/>
<path d="M7621 3824 c0 -11 3 -14 6 -6 3 7 2 16 -1 19 -3 4 -6 -2 -5 -13z"/>
<path d="M7613 3740 c4 -33 15 -77 26 -98 25 -50 89 -106 136 -122 50 -16 141
-8 191 18 49 25 89 67 79 83 -5 8 -4 10 4 5 13 -8 45 58 37 77 -2 7 -5 5 -5
-4 -1 -9 -8 -22 -16 -29 -13 -11 -16 -8 -21 18 -5 26 -12 32 -45 37 -22 4 -57
4 -79 0 -33 -6 -40 -4 -40 9 0 20 -33 21 -127 1 -40 -8 -82 -13 -95 -11 -13 3
-27 5 -32 5 -4 1 -6 17 -4 36 2 19 0 35 -5 35 -6 0 -7 -25 -4 -60z"/>
<path d="M8093 3760 c0 -25 2 -35 4 -22 2 12 2 32 0 45 -2 12 -4 2 -4 -23z"/>
<path d="M6965 3588 c-31 -24 -55 -74 -55 -114 0 -72 78 -142 143 -129 132 28
172 180 64 245 -44 28 -116 27 -152 -2z"/>
<path d="M6220 3593 c-94 -30 -129 -140 -71 -221 56 -80 200 -52 231 44 33
100 -65 209 -160 177z"/>
</g>
</svg>
