<?xml version="1.0" standalone="no"?>
<!DOCTYPE svg PUBLIC "-//W3C//DTD SVG 20010904//EN"
 "http://www.w3.org/TR/2001/REC-SVG-20010904/DTD/svg10.dtd">
<svg version="1.0" xmlns="http://www.w3.org/2000/svg"
 width="1024.000000pt" height="1024.000000pt" viewBox="0 0 1024.000000 1024.000000"
 preserveAspectRatio="xMidYMid meet">

<g transform="translate(0.000000,1024.000000) scale(0.100000,-0.100000)"
fill="#000000" stroke="none">
<path d="M0 5120 l0 -5120 5120 0 5120 0 0 5120 0 5120 -5120 0 -5120 0 0
-5120z m5540 3266 c69 -8 169 -24 224 -35 54 -12 101 -21 105 -22 3 0 -42 -17
-101 -38 -169 -61 -334 -156 -489 -284 -64 -53 -200 -206 -234 -264 -16 -28
-24 -31 -129 -47 -61 -10 -119 -22 -129 -27 -16 -9 -17 -26 -15 -192 l3 -182
68 -3 c89 -4 87 -22 -3 -22 l-70 0 2 -287 3 -288 33 -3 c43 -4 41 -22 -3 -22
l-35 0 0 -189 c0 -116 -4 -192 -10 -196 -7 -4 -10 62 -10 189 l0 196 -305 0
-305 0 0 -290 0 -290 210 -2 c132 -2 210 -7 210 -13 0 -6 -76 -10 -210 -9
l-210 1 0 -148 c0 -135 -8 -184 -24 -143 -3 9 -6 78 -6 155 l0 140 -152 -3
-153 -3 -5 -35 c-3 -23 -11 -36 -22 -38 -17 -3 -18 15 -17 285 0 158 3 283 5
277 3 -7 9 -135 13 -285 l8 -274 1 283 c1 180 6 282 12 282 6 0 10 -85 10
-235 l0 -235 150 0 150 0 0 295 c0 256 -2 295 -15 295 -8 0 -15 5 -15 10 0 6
7 10 15 10 13 0 15 38 15 285 l0 285 -133 0 -134 0 -59 -41 c-65 -46 -137
-106 -228 -189 l-59 -55 234 -5 234 -5 0 -65 0 -65 -302 -5 c-166 -3 -304 -7
-306 -10 -3 -3 -26 -32 -52 -65 l-46 -60 30 -3 c47 -5 37 -22 -12 -22 -41 0
-45 -3 -80 -52 l-37 -53 45 -3 45 -3 0 -480 0 -479 -25 0 -25 0 -2 443 -3 442
-44 0 c-43 0 -44 -1 -82 -64 l-39 -65 0 -137 c0 -100 3 -139 13 -143 9 -3 7
-9 -5 -19 -16 -13 -18 -41 -18 -321 l0 -306 135 0 c83 0 135 -4 135 -10 0 -6
-51 -10 -134 -10 l-135 0 -3 -52 c-2 -29 -7 -53 -13 -53 -5 0 -11 24 -13 53
l-3 52 -130 0 c-100 0 -130 3 -126 13 3 9 35 11 129 9 l125 -3 6 218 c4 120 7
260 7 311 l0 93 -62 -3 -61 -3 -24 -70 c-61 -178 -93 -312 -132 -555 -30 -182
-32 -473 -5 -648 3 -20 6 -45 8 -54 1 -10 4 -20 7 -23 6 -5 440 81 754 149
l160 35 48 -31 c27 -17 54 -31 61 -31 7 0 61 32 120 73 123 84 97 88 228 -39
l78 -75 82 27 c46 14 184 53 307 86 123 33 225 62 226 63 1 2 24 47 51 100 27
54 52 94 56 90 4 -4 30 -101 58 -217 43 -176 49 -214 39 -232 -7 -13 -16 -23
-19 -23 -4 0 -31 36 -59 80 -29 44 -57 80 -62 80 -14 0 -376 -560 -470 -727
-23 -41 -26 -43 -74 -43 -27 0 -93 3 -147 6 l-96 7 -7 52 c-14 113 -81 205
-190 256 -78 38 -142 38 -230 3 -36 -15 -67 -25 -68 -23 -11 18 -37 82 -37 93
0 18 101 55 171 63 72 7 167 -11 233 -44 108 -55 206 -182 222 -289 7 -48 1
-46 108 -48 l49 -1 95 155 c51 85 135 220 186 300 102 160 166 265 166 272 0
7 -331 -84 -479 -131 l-123 -39 -47 41 c-25 22 -69 63 -96 89 l-51 48 -107
-70 c-60 -38 -113 -70 -119 -70 -5 0 -36 16 -68 36 l-58 36 -118 -26 c-66 -14
-168 -36 -229 -50 -60 -13 -200 -43 -310 -66 -110 -22 -205 -43 -212 -45 -8
-3 -4 -36 13 -117 59 -278 189 -580 349 -814 l75 -109 -398 -3 c-218 -1 -402
0 -408 2 -16 6 -104 181 -163 324 -93 226 -155 446 -186 652 l-16 105 -47 41
c-27 23 -65 62 -85 87 l-37 45 70 56 70 57 0 157 c0 247 16 389 76 687 37 183
85 356 140 503 45 119 154 354 212 457 263 465 699 920 1129 1178 388 233 804
381 1243 443 25 4 68 10 95 14 95 13 525 11 655 -4z m2468 -678 l3 -37 -91 -3
c-95 -3 -110 2 -110 37 0 38 19 46 110 43 l85 -3 3 -37z m-1728 -273 c0 -29
-31 -24 -50 8 -31 49 -130 244 -130 255 0 5 10 14 23 19 21 10 25 4 90 -129
37 -77 67 -146 67 -153z m178 203 c6 -35 14 -88 17 -119 l7 -55 -37 -11 c-34
-11 -37 -10 -47 15 -17 45 -68 195 -68 203 0 6 69 24 106 28 7 0 16 -26 22
-61z m-512 -98 c143 -157 207 -238 198 -251 -15 -25 -56 4 -215 152 -96 89
-176 165 -178 171 -3 10 47 68 60 68 4 0 65 -63 135 -140z m2312 13 l-3 -38
-222 -3 -223 -2 0 40 0 40 226 0 225 0 -3 -37z m-1511 -38 c308 -97 507 -405
466 -718 -25 -181 -101 -316 -243 -430 -97 -77 -289 -147 -405 -147 l-34 0 0
588 c-1 323 -3 618 -6 656 -2 38 -2 73 2 79 9 15 133 0 220 -28z m1501 -84 c8
-5 12 -22 10 -42 l-3 -34 -220 0 -220 0 -3 37 c-3 37 -3 37 40 41 87 7 383 6
396 -2z m-2445 -173 c84 -51 276 -154 427 -230 210 -105 270 -139 255 -144
-11 -4 -22 -11 -26 -16 -3 -4 -66 -3 -140 2 -178 13 -219 19 -219 33 1 33 15
34 125 12 138 -28 235 -40 235 -28 0 5 -30 22 -67 38 -237 105 -423 193 -593
284 -107 56 -197 105 -199 107 -7 7 21 34 36 34 8 0 83 -41 166 -92z m2061 25
c4 -4 93 -7 199 -8 l192 0 0 -40 0 -40 -167 -3 c-93 -1 -168 -5 -168 -7 0 -2
8 -18 19 -36 l19 -31 143 -1 144 -2 3 -42 3 -42 -119 -3 -120 -3 15 -37 15
-38 104 0 104 0 0 -40 0 -40 -85 0 c-47 0 -85 -2 -85 -5 0 -2 8 -20 17 -40
l17 -35 68 0 68 0 0 -40 0 -40 -59 0 -59 0 15 -40 c15 -37 18 -39 62 -42 45
-3 46 -4 49 -40 l3 -38 -39 0 -40 0 10 -34 c9 -27 17 -36 37 -38 l26 -3 3
-547 2 -548 -220 0 -220 0 0 30 0 30 215 0 215 0 0 35 0 35 -215 0 -215 0 0
140 0 140 195 0 195 0 0 35 0 35 -195 0 -195 0 0 140 0 140 195 0 195 0 0 35
0 35 -195 0 -195 0 0 540 c0 517 1 540 18 540 10 0 22 -3 26 -7z m-1449 -20
c9 -11 9 -24 2 -42 -8 -21 -5 -36 15 -76 31 -62 82 -214 74 -222 -3 -3 -8 3
-12 13 -4 10 -28 68 -55 127 -27 59 -49 113 -49 119 0 6 -7 20 -17 30 -13 15
-14 23 -5 43 13 29 30 32 47 8z m-60 -155 c82 -96 135 -171 135 -193 0 -14
-231 166 -273 213 -19 20 -18 22 8 56 15 20 29 36 30 36 2 0 47 -51 100 -112z
m-553 -142 c75 -11 83 -14 84 -34 1 -12 -2 -25 -6 -27 -12 -7 -303 14 -311 23
-4 4 -5 20 -2 35 l6 28 73 -6 c40 -4 110 -13 156 -19z m692 -139 c-9 -5 -34
-11 -56 -12 -30 -3 -315 -81 -326 -90 -5 -5 39 -110 53 -124 14 -14 44 7 199
135 58 49 107 75 105 57 0 -4 -61 -61 -135 -125 l-134 -117 31 -36 c17 -19 35
-35 40 -35 4 0 26 30 48 68 65 111 170 252 187 252 12 0 -7 -129 -38 -248 -45
-175 -43 -162 -22 -162 26 -1 63 -31 47 -37 -9 -3 -13 -27 -13 -69 l0 -64 -43
0 c-24 0 -48 5 -54 11 -7 7 -20 -14 -43 -73 -35 -88 -46 -106 -56 -95 -5 5 33
125 93 294 3 7 -23 26 -59 44 -34 17 -83 49 -106 71 l-44 40 -36 -33 c-21 -19
-76 -71 -123 -116 -48 -46 -90 -83 -95 -83 -5 0 -17 11 -26 24 -20 28 -22 25
107 124 44 34 96 75 115 91 l35 29 -33 65 c-17 36 -32 72 -32 79 0 23 -10 27
-39 16 -14 -5 -120 -34 -236 -63 -190 -48 -211 -52 -223 -37 -7 9 -8 20 -3 25
26 26 630 172 835 202 34 4 51 3 56 -5 5 -8 12 -1 21 20 13 28 14 29 17 9 2
-13 -3 -26 -14 -32z m-101 16 c-7 -2 -19 -2 -25 0 -7 3 -2 5 12 5 14 0 19 -2
13 -5z m-2389 -148 c5 -13 -33 -15 -304 -15 -171 0 -310 4 -310 8 0 5 3 12 7
15 3 4 140 7 304 7 255 0 298 -2 303 -15z m-586 -682 c-2 -434 -6 -557 -15
-561 -10 -3 -13 62 -13 300 0 223 -3 307 -12 316 -9 9 -9 12 0 12 9 0 12 60
12 238 0 131 3 242 7 245 3 4 10 7 15 7 4 0 7 -251 6 -557z m42 223 c1 -289
-1 -338 -14 -325 -7 7 -17 639 -10 650 19 31 24 -35 24 -325z m400 239 c0 -46
-4 -87 -10 -90 -6 -3 -10 -52 -10 -111 0 -70 -4 -104 -11 -104 -8 0 -9 53 -4
193 4 105 9 195 12 200 13 22 23 -14 23 -88z m45 72 c9 -36 1 -172 -10 -170
-14 4 -19 193 -6 193 6 0 13 -10 16 -23z m45 -98 c0 -90 -3 -109 -15 -109 -12
0 -15 19 -15 108 0 60 3 112 6 115 18 17 24 -14 24 -114z m-452 -141 c-3 -139
-3 -226 -1 -193 2 33 6 67 10 75 3 8 5 95 3 193 -2 161 0 177 15 177 16 0 17
-18 13 -235 l-4 -235 60 0 c34 0 72 -3 84 -7 43 -11 2 -23 -80 -23 l-78 0 0
-69 c0 -58 -3 -69 -19 -74 -17 -4 -19 5 -25 107 -3 61 -6 207 -6 324 0 190 2
212 16 212 15 0 16 -23 12 -252z m92 127 c0 -70 -4 -125 -9 -125 -5 0 -12 -10
-14 -22 -2 -13 -5 43 -6 125 -1 125 1 147 14 147 13 0 15 -21 15 -125z m45
-67 c-4 -106 -9 -195 -11 -197 -11 -12 -14 20 -20 197 l-7 192 22 0 23 0 -7
-192z m47 10 l3 -183 2 183 c2 100 7 182 12 182 15 0 17 -30 20 -241 2 -159 0
-209 -10 -215 -8 -4 -15 -2 -17 5 -4 11 -6 11 -13 0 -5 -9 -10 30 -11 96 -2
88 -3 95 -5 38 -2 -40 -8 -73 -13 -73 -12 0 -12 53 -3 248 5 109 9 142 20 142
10 0 13 -37 15 -182z m68 -103 c0 -172 -4 -285 -9 -285 -14 0 -16 63 -13 333
2 144 6 237 12 237 6 0 10 -108 10 -285z m1965 23 c98 -125 291 -321 405 -412
121 -98 333 -235 569 -370 168 -96 259 -156 355 -238 5 -4 -6 -3 -25 2 -19 6
-101 29 -184 51 -178 49 -378 119 -534 188 -62 28 -115 51 -117 51 -2 0 10
-23 27 -52 48 -82 120 -229 117 -239 -3 -10 -238 119 -386 213 -52 32 -92 53
-89 46 2 -7 54 -105 116 -218 61 -112 109 -206 107 -208 -6 -5 -115 52 -234
122 -117 69 -218 144 -328 242 l-70 63 -13 -47 c-24 -97 -147 -342 -171 -342
-26 0 -120 199 -155 327 l-17 62 -72 -65 c-98 -90 -198 -165 -315 -234 -107
-63 -241 -133 -246 -128 -2 2 24 48 57 103 55 92 135 242 164 306 11 24 3 21
-80 -31 -133 -83 -387 -223 -393 -216 -3 3 31 69 76 147 44 77 75 139 68 136
-6 -3 -79 -37 -162 -75 -82 -38 -186 -81 -230 -95 -99 -33 -457 -128 -462
-123 -6 6 79 53 375 205 275 142 406 216 537 304 212 143 418 329 581 522 l87
105 281 -1 281 0 80 -101z m511 38 c3 -8 0 -24 -6 -36 -9 -17 -17 -20 -38 -15
-36 9 -37 11 -18 40 18 27 53 34 62 11z m1474 -906 c0 -5 -25 -10 -55 -10 -30
0 -55 5 -55 10 0 6 25 10 55 10 30 0 55 -4 55 -10z m865 -25 l0 -30 -97 -3
-98 -3 0 29 c0 16 3 32 7 36 4 4 48 5 98 4 l90 -3 0 -30z m-1515 -610 l0 -295
-215 0 -215 0 0 295 0 295 215 0 215 0 0 -295z m1508 103 l-3 -33 -87 -3 c-80
-3 -88 -1 -98 18 -23 42 -8 50 95 50 l96 0 -3 -32z m-2118 -693 l0 -345 -210
0 -210 0 0 345 0 345 210 0 210 0 0 -345z m610 -60 l0 -285 -215 0 -215 0 0
285 0 285 215 0 215 0 0 -285z m1510 250 l0 -35 -95 0 -95 0 0 28 c0 16 3 32
7 35 3 4 46 7 95 7 l88 0 0 -35z m-4714 -60 c47 -19 115 -84 135 -130 64 -140
-36 -310 -197 -332 l-45 -6 3 54 3 54 38 6 c45 7 92 49 107 95 26 78 -42 174
-124 174 -24 0 -26 3 -26 48 0 27 3 51 6 55 8 8 59 -2 100 -18z m1992 -267 l2
-208 -215 0 -215 0 0 203 c0 112 3 207 7 211 4 3 99 5 212 4 l206 -3 3 -207z
m-598 -383 l0 -105 -210 0 -210 0 0 105 0 105 210 0 210 0 0 -105z m598 -2
c-3 -96 -5 -108 -20 -107 -10 1 -106 2 -213 3 l-195 1 0 105 0 105 215 0 216
0 -3 -107z m602 2 l0 -105 -210 0 -210 0 0 105 0 105 210 0 210 0 0 -105z
m610 0 l0 -105 -215 0 -215 0 0 105 0 105 215 0 215 0 0 -105z m-1568 -235
l2519 0 -61 -89 -61 -90 -387 -3 c-213 -3 -1404 -5 -2648 -6 l-2261 -2 -66 94
c-37 53 -67 98 -67 102 0 4 115 4 257 1 141 -4 1390 -7 2775 -7z m2298 -319
c0 -3 -34 -45 -76 -94 l-76 -87 -2398 0 -2399 0 -75 89 c-42 49 -76 92 -76 96
0 3 1148 5 2550 4 1403 0 2550 -4 2550 -8z m-340 -363 c-30 -28 -81 -71 -114
-95 l-58 -43 -1554 0 c-1024 0 -1555 -3 -1559 -10 -3 -5 0 -10 7 -10 7 0 69
-24 138 -52 l125 -52 1340 -6 1340 -5 -70 -46 c-38 -25 -106 -67 -151 -92
l-81 -47 -519 0 c-636 -1 -1118 -14 -1233 -35 -46 -8 -86 -17 -88 -19 -6 -6
29 -12 177 -30 63 -9 133 -18 155 -22 22 -3 324 -8 670 -11 l630 -5 -55 -25
c-83 -37 -273 -107 -385 -142 l-100 -31 -365 -3 c-335 -2 -436 -10 -404 -29
26 -16 143 -28 292 -29 192 -1 195 -11 11 -35 -100 -13 -181 -15 -414 -11
-300 5 -352 11 -595 61 -465 97 -884 287 -1265 571 -110 82 -355 289 -355 300
0 3 1020 5 2268 5 l2267 -1 -55 -51z"/>
<path d="M4633 7635 c-130 -39 -331 -114 -413 -154 l-75 -38 -3 -76 -3 -77
306 0 305 0 0 185 c0 214 12 198 -117 160z"/>
<path d="M4035 7387 c-78 -43 -135 -80 -135 -89 0 -5 47 -8 105 -8 l105 0 0
65 c0 36 -3 65 -7 65 -5 0 -35 -15 -68 -33z"/>
<path d="M4140 6986 l0 -284 28 -4 c15 -2 151 -4 302 -3 l275 0 3 288 2 287
-305 0 -305 0 0 -284z"/>
<path d="M2945 6200 c-25 -49 -45 -94 -45 -100 0 -5 23 -10 50 -10 l50 0 0
100 c0 55 -2 100 -5 100 -3 0 -25 -40 -50 -90z"/>
<path d="M2039 4895 c-80 -44 -45 -169 48 -169 47 0 83 40 83 93 0 66 -74 109
-131 76z"/>
<path d="M2525 4645 c-35 -34 -34 -93 1 -126 59 -55 154 -14 154 67 0 77 -100
115 -155 59z"/>
<path d="M6582 7462 c-8 -2 -12 -33 -12 -102 l0 -98 73 -24 c39 -14 78 -26 85
-29 9 -3 23 24 43 81 17 47 31 92 32 100 3 25 -181 86 -221 72z"/>
<path d="M6807 7283 l-45 -97 54 -53 c30 -29 54 -57 54 -61 0 -4 4 -13 9 -20
7 -11 16 -9 47 11 22 13 63 36 92 51 l52 26 -21 43 c-23 43 -137 165 -175 185
-20 11 -24 5 -67 -85z"/>
<path d="M6565 6883 c-4 -189 -5 -346 -3 -348 10 -11 142 25 183 50 58 33 118
110 140 176 26 76 17 197 -19 267 -49 97 -140 165 -252 190 l-42 9 -7 -344z"/>
<path d="M7060 7088 c-146 -63 -161 -72 -154 -87 4 -9 8 -61 10 -116 3 -95 2
-103 -30 -170 -24 -53 -47 -83 -91 -122 l-59 -51 34 -74 c54 -118 47 -114 116
-67 208 142 302 394 233 626 -12 40 -25 73 -28 72 -3 0 -17 -5 -31 -11z"/>
<path d="M6622 6517 c-58 -9 -63 -12 -58 -31 3 -12 6 -59 6 -105 l0 -84 50 6
c73 9 170 38 170 51 0 6 -17 48 -37 94 -25 54 -42 82 -53 81 -8 -1 -43 -6 -78
-12z"/>
<path d="M6471 6737 c-11 -19 -21 -38 -21 -42 0 -4 -27 -47 -60 -96 -32 -48
-66 -101 -74 -118 -15 -28 -14 -30 8 -45 13 -8 35 -18 47 -21 23 -6 26 0 66
127 69 219 77 265 34 195z"/>
<path d="M4592 2660 c0 -14 2 -19 5 -12 2 6 2 18 0 25 -3 6 -5 1 -5 -13z"/>
</g>
</svg>
